<?xml version="1.0" standalone="no"?>
<!DOCTYPE svg PUBLIC "-//W3C//DTD SVG 20010904//EN"
 "http://www.w3.org/TR/2001/REC-SVG-20010904/DTD/svg10.dtd">
<svg version="1.0" xmlns="http://www.w3.org/2000/svg"
 width="1254.000000pt" height="1254.000000pt" viewBox="0 0 1254.000000 1254.000000"
 preserveAspectRatio="xMidYMid meet">

<g transform="translate(0.000000,1254.000000) scale(0.100000,-0.100000)"
fill="#000000" stroke="none">
<path d="M0 6270 l0 -6270 6270 0 6270 0 0 6270 0 6270 -6270 0 -6270 0 0
-6270z m6070 3675 c-14 -8 -29 -14 -35 -14 -5 0 1 6 15 14 14 8 30 14 35 14 6
0 -1 -6 -15 -14z m-140 -59 c0 -3 -4 -8 -10 -11 -5 -3 -10 -1 -10 4 0 6 5 11
10 11 6 0 10 -2 10 -4z m587 -62 c-3 -3 -12 -4 -19 -1 -8 3 -5 6 6 6 11 1 17
-2 13 -5z m1883 -764 c0 -5 -5 -10 -11 -10 -5 0 -7 5 -4 10 3 6 8 10 11 10 2
0 4 -4 4 -10z m-4300 -14 c0 -2 -7 -7 -16 -10 -8 -3 -12 -2 -9 4 6 10 25 14
25 6z m4397 -678 c-3 -7 -5 -2 -5 12 0 14 2 19 5 13 2 -7 2 -19 0 -25z m-1487
-12 c0 -2 -7 -7 -16 -10 -8 -3 -12 -2 -9 4 6 10 25 14 25 6z m-60 -31 c0 -2
-10 -9 -22 -15 -22 -11 -22 -10 -4 4 21 17 26 19 26 11z m-1245 -43 c-3 -3
-11 0 -18 7 -9 10 -8 11 6 5 10 -3 15 -9 12 -12z m1175 2 c0 -2 -7 -4 -15 -4
-8 0 -15 4 -15 10 0 5 7 7 15 4 8 -4 15 -8 15 -10z m-1120 -19 c14 -8 21 -14
15 -14 -5 0 -21 6 -35 14 -14 8 -20 14 -15 14 6 0 21 -6 35 -14z m1070 -2 c-8
-3 -24 -10 -35 -15 -20 -9 -20 -9 -1 6 11 9 27 16 35 15 14 0 14 -1 1 -6z
m-980 -33 c8 -5 11 -10 5 -10 -5 0 -17 5 -25 10 -8 5 -10 10 -5 10 6 0 17 -5
25 -10z m740 -90 c-137 -70 -195 -97 -222 -104 -12 -4 49 29 137 73 88 44 165
80 170 80 6 0 -33 -22 -85 -49z m-590 30 c8 -5 11 -10 5 -10 -5 0 -17 5 -25
10 -8 5 -10 10 -5 10 6 0 17 -5 25 -10z m1536 -8 c-5 -13 1 -23 16 -31 14 -7
15 -9 5 -6 -10 3 -25 5 -34 5 -10 0 -13 6 -9 18 5 14 3 14 -12 -3 -24 -27 -38
-34 -427 -230 l-340 -172 -2 -544 c-1 -299 -4 -852 -6 -1228 l-3 -683 23 -11
c27 -12 30 -26 6 -26 -10 0 -29 -2 -42 -3 l-24 -3 -1 1195 c-1 657 0 1227 2
1266 l4 72 121 57 c67 32 244 117 392 190 367 178 340 167 331 137z m-1486
-12 c8 -5 11 -10 5 -10 -5 0 -17 5 -25 10 -8 5 -10 10 -5 10 6 0 17 -5 25 -10z
m160 -62 c25 -13 28 -17 10 -12 -14 4 -41 15 -60 26 -25 13 -28 17 -10 12 14
-4 41 -15 60 -26z m1040 -132 c0 -2 -7 -7 -16 -10 -8 -3 -12 -2 -9 4 6 10 25
14 25 6z m-41 -20 c-2 -2 -15 -9 -29 -15 -24 -11 -24 -11 -6 3 16 13 49 24 35
12z m-94 -46 c-3 -5 -12 -10 -18 -10 -7 0 -6 4 3 10 19 12 23 12 15 0z m-115
-55 c0 -6 -97 -55 -107 -55 -4 1 17 14 47 30 61 32 60 32 60 25z m-180 -94
c-19 -11 -39 -17 -44 -14 -5 4 6 12 25 18 51 19 59 17 19 -4z m761 -148 c-8
-15 -10 -15 -11 -2 0 17 10 32 18 25 2 -3 -1 -13 -7 -23z m1 -50 c-3 -16 -7
-22 -10 -15 -4 13 4 42 11 42 2 0 2 -12 -1 -27z m8 -77 c0 -3 -4 -8 -10 -11
-5 -3 -10 -1 -10 4 0 6 5 11 10 11 6 0 10 -2 10 -4z m-9 -59 c-8 -8 -11 -7
-11 4 0 9 3 19 7 23 4 4 9 2 11 -4 3 -7 -1 -17 -7 -23z m-4 -79 c-3 -8 -6 -5
-6 6 -1 11 2 17 5 13 3 -3 4 -12 1 -19z m8 -58 c3 -5 1 -10 -4 -10 -6 0 -11 5
-11 10 0 6 2 10 4 10 3 0 8 -4 11 -10z m-8 -62 c-3 -8 -6 -5 -6 6 -1 11 2 17
5 13 3 -3 4 -12 1 -19z m8 -117 c3 -5 1 -12 -5 -16 -5 -3 -10 1 -10 9 0 18 6
21 15 7z m-8 -83 c-3 -7 -5 -2 -5 12 0 14 2 19 5 13 2 -7 2 -19 0 -25z m5
-145 c2 -67 0 -119 -4 -117 -4 3 -8 60 -8 126 0 67 2 119 4 117 2 -2 6 -59 8
-126z m-1 -660 c-2 -13 -6 -23 -10 -23 -9 0 -12 303 -3 390 6 62 8 39 12 -135
3 -115 3 -220 1 -232z m-816 117 c3 -5 1 -10 -4 -10 -6 0 -11 5 -11 10 0 6 2
10 4 10 3 0 8 -4 11 -10z m-418 -152 c-3 -8 -6 -5 -6 6 -1 11 2 17 5 13 3 -3
4 -12 1 -19z m1233 -54 c0 -34 -4 -53 -10 -49 -18 11 -12 105 7 105 2 0 3 -25
3 -56z m0 -194 c0 -71 -4 -130 -8 -130 -5 0 -8 59 -8 130 -1 72 3 130 8 130 4
0 8 -58 8 -130z m1 -202 c0 -29 2 -61 4 -71 3 -15 1 -16 -11 -6 -7 6 -22 8
-31 5 -14 -5 -13 -2 3 11 18 15 21 27 18 66 -2 26 1 47 6 47 6 0 10 -24 11
-52z m-791 -508 c0 -5 -2 -10 -4 -10 -3 0 -8 5 -11 10 -3 6 -1 10 4 10 6 0 11
-4 11 -10z m56 -8 c1 -7 0 -8 -3 -2 -2 5 -9 8 -14 4 -5 -3 -9 0 -9 6 0 15 23
7 26 -8z m671 -2378 c64 -49 82 -199 34 -292 -23 -45 -49 -66 -95 -76 -23 -6
-27 -4 -23 8 4 10 1 16 -9 16 -10 0 -14 -6 -11 -15 9 -22 -51 -8 -90 22 -74
54 -85 236 -19 317 46 58 150 68 213 20z m513 21 c0 -8 5 -15 11 -15 5 0 7 5
4 10 -11 18 21 11 56 -13 55 -37 71 -78 66 -177 -6 -136 -51 -194 -153 -195
-64 0 -100 23 -131 85 -40 77 -29 213 21 269 38 43 126 68 126 36z m-3859 -10
c16 -9 27 -20 24 -25 -3 -6 1 -7 9 -4 10 4 22 -8 37 -37 18 -36 21 -55 17
-123 -8 -146 -41 -178 -196 -186 -56 -3 -102 -3 -102 0 0 4 5 11 10 16 7 7 10
76 8 192 l-3 182 83 0 c55 0 93 -5 113 -15z m555 7 c-4 -6 75 -275 109 -369 3
-9 -6 -13 -24 -13 -17 0 -28 5 -27 13 0 6 -6 29 -14 50 l-14 37 -78 0 -77 0
-11 -39 c-5 -21 -8 -45 -5 -53 4 -11 -2 -13 -30 -10 -25 3 -33 8 -27 16 5 6
17 38 26 71 10 33 33 106 52 163 19 57 34 112 34 123 0 16 7 19 46 19 25 0 43
-4 40 -8z m539 -2 c-14 -6 -15 -9 -4 -9 8 -1 20 4 26 10 18 18 80 2 102 -27
44 -55 30 -142 -26 -166 -15 -7 -30 -13 -32 -15 -2 -2 4 -19 15 -38 17 -31 17
-37 4 -46 -13 -9 -12 -10 3 -5 13 4 21 -2 29 -22 7 -15 18 -35 26 -44 14 -17
12 -18 -28 -18 -24 0 -41 3 -37 6 3 3 -9 40 -27 82 l-33 77 -44 0 -44 0 0 -83
0 -82 -33 0 c-24 0 -31 3 -26 12 5 7 7 56 6 108 -1 52 1 103 4 113 9 30 24 18
19 -15 -4 -29 -4 -30 4 -8 13 37 13 150 0 150 -6 0 -9 -18 -8 -45 4 -69 -7
-63 -17 10 l-10 65 75 -1 c52 0 70 -3 56 -9z m517 -87 c-3 -82 -1 -95 11 -85
7 7 18 8 22 4 5 -4 5 -1 1 6 -5 8 16 39 58 86 36 40 63 76 59 80 -3 3 11 6 32
6 35 0 37 -1 23 -17 -117 -140 -111 -130 -93 -157 9 -14 13 -31 9 -37 -4 -7
-3 -9 4 -6 13 9 65 -79 56 -95 -5 -7 -3 -8 6 -3 10 6 12 4 7 -9 -4 -10 -3 -15
3 -11 5 3 16 -8 25 -25 l16 -30 -36 0 c-19 0 -34 3 -33 8 3 9 -102 192 -111
192 -3 0 -19 -18 -34 -41 -25 -35 -28 -47 -25 -99 l3 -58 -37 -4 c-32 -3 -35
-1 -27 14 6 11 9 97 7 198 l-3 180 30 0 30 0 -3 -97z m1159 69 c25 -22 31 -36
32 -73 2 -52 -21 -95 -58 -109 l-24 -9 36 -73 c19 -40 41 -80 48 -88 12 -13 8
-15 -31 -12 -24 2 -42 8 -39 12 3 5 -11 43 -32 84 -36 74 -38 76 -74 76 -44 0
-48 -9 -45 -104 l2 -66 -33 0 c-29 0 -32 3 -25 18 5 9 8 97 6 195 l-4 177 105
0 c100 0 106 -1 136 -28z m1608 -5 c7 -19 9 -43 5 -53 -5 -16 -4 -16 5 -4 6 9
11 10 11 3 0 -6 3 -20 6 -30 4 -13 3 -14 -4 -5 -8 11 -10 11 -14 0 -6 -13 13
-48 25 -48 4 0 4 8 1 18 -2 9 4 -1 15 -23 11 -22 20 -47 20 -55 1 -8 4 -10 10
-5 11 13 84 204 84 222 0 9 14 13 41 13 l41 0 0 -195 0 -195 -31 0 -30 0 5 48
c7 57 -1 271 -10 257 -3 -5 -9 -23 -13 -38 -5 -23 -10 -26 -21 -17 -10 9 -15
6 -20 -10 -8 -27 2 -40 16 -20 8 11 8 8 3 -10 -12 -43 -45 -117 -39 -87 3 15
1 27 -5 27 -9 0 -12 -14 -9 -36 0 -4 -5 -10 -11 -14 -7 -4 -9 -13 -5 -20 6 -9
10 -9 17 1 6 10 7 6 2 -11 -14 -53 -21 -45 -68 88 -27 75 -53 142 -58 147 -5
6 -8 -54 -6 -148 l3 -157 -29 0 c-28 0 -28 1 -22 38 3 20 6 50 6 66 0 24 2 27
15 16 12 -10 15 -10 15 4 0 9 -7 16 -15 16 -10 0 -15 10 -15 33 -1 17 -3 49
-6 70 -4 26 -2 37 7 37 10 0 10 3 1 12 -16 16 -15 28 3 28 8 0 15 5 15 10 0 6
-3 9 -7 8 -5 -2 -10 2 -11 7 -2 6 -8 18 -13 28 -9 15 -4 17 35 17 42 0 45 -2
55 -33z m-5796 -184 c-23 -2 -64 -2 -90 0 -26 2 -7 3 42 3 50 0 71 -1 48 -3z
m130 0 c-13 -2 -35 -2 -50 0 -16 2 -5 4 22 4 28 0 40 -2 28 -4z m200 0 c-29
-2 -78 -2 -110 0 -32 2 -8 3 52 3 61 0 87 -1 58 -3z m94 1 c-3 -3 -12 -4 -19
-1 -8 3 -5 6 6 6 11 1 17 -2 13 -5z m110 -1 c-20 -2 -52 -2 -70 0 -17 2 0 4
38 4 39 0 53 -2 32 -4z m120 1 c-3 -3 -12 -4 -19 -1 -8 3 -5 6 6 6 11 1 17 -2
13 -5z m96 -1 c-13 -2 -35 -2 -50 0 -16 2 -5 4 22 4 28 0 40 -2 28 -4z m5765
0 c-16 -2 -40 -2 -55 0 -16 2 -3 4 27 4 30 0 43 -2 28 -4z m129 0 c-20 -2 -52
-2 -70 0 -17 2 0 4 38 4 39 0 53 -2 32 -4z m80 1 c-3 -3 -12 -4 -19 -1 -8 3
-5 6 6 6 11 1 17 -2 13 -5z m171 -1 c-26 -2 -71 -2 -100 0 -29 2 -8 3 47 3 55
0 79 -1 53 -3z m125 0 c-13 -2 -33 -2 -45 0 -13 2 -3 4 22 4 25 0 35 -2 23 -4z
m155 0 c-21 -2 -57 -2 -80 0 -24 2 -7 4 37 4 44 0 63 -2 43 -4z m130 0 c-16
-2 -40 -2 -55 0 -16 2 -3 4 27 4 30 0 43 -2 28 -4z m-4628 -488 c0 -10 -16
-15 -65 -17 -36 -2 -65 -7 -64 -12 0 -5 -5 -13 -13 -17 -10 -7 -10 -9 0 -9 6
0 12 -9 12 -19 0 -11 -6 -21 -12 -24 -28 -10 0 -14 53 -8 44 5 56 4 52 -6 -3
-7 -8 -12 -11 -11 -4 0 -24 0 -44 -1 -36 -1 -38 -3 -38 -33 0 -25 -3 -29 -10
-18 -8 13 -10 13 -10 -2 0 -9 6 -19 13 -21 9 -4 8 -8 -3 -16 -13 -9 -16 5 -20
102 -5 106 -3 137 7 110 3 -7 9 -13 14 -13 6 0 8 4 4 10 -3 5 23 11 62 13 37
2 69 4 71 5 1 1 2 -5 2 -13z m453 -2 c4 -2 5 -8 2 -13 -3 -5 0 -12 6 -16 8 -4
9 -3 5 4 -4 7 -3 12 3 12 17 0 21 -17 7 -29 -10 -8 -17 -6 -31 9 -10 11 -26
20 -37 20 -10 0 -18 7 -18 15 0 12 7 14 28 9 15 -4 30 -9 35 -11z m447 6 c0
-6 4 -7 10 -4 27 17 74 -46 66 -90 -2 -11 2 -24 8 -28 8 -6 7 -10 -1 -14 -8
-3 -11 -14 -7 -29 5 -18 -1 -31 -24 -54 -29 -29 -62 -40 -62 -21 0 8 30 21 55
25 5 0 11 30 13 66 3 87 -21 130 -73 130 -32 0 -74 -27 -75 -47 -1 -5 -5 -27
-9 -50 -5 -27 -5 -43 2 -43 5 0 7 -8 4 -19 -5 -21 9 -51 25 -51 6 0 5 7 -3 17
-12 14 -10 14 14 -1 27 -19 36 -36 16 -36 -5 0 -7 4 -4 10 4 6 -3 9 -16 7 -49
-5 -79 109 -49 184 11 26 16 30 35 29 3 -1 12 5 19 12 16 16 56 21 56 7z
m1420 -5 c0 -11 -6 -15 -20 -11 -11 3 -18 2 -15 -3 6 -10 -20 -32 -28 -23 -4
3 -7 -5 -7 -18 0 -28 17 -49 38 -49 9 0 6 7 -9 21 l-24 20 25 -14 c14 -8 39
-18 55 -21 53 -13 75 -33 75 -70 0 -20 -8 -40 -20 -51 -21 -19 -105 -31 -94
-13 4 6 -1 8 -13 4 -10 -3 -27 0 -37 7 -16 12 -16 14 -2 26 9 8 16 9 16 3 0
-8 68 -42 85 -42 9 0 45 44 45 55 0 24 -28 47 -70 56 -25 6 -53 17 -62 26 -36
33 -15 93 37 106 11 2 21 5 23 6 1 0 2 -6 2 -15z m80 -9 c0 -2 -3 -11 -6 -19
-5 -13 -9 -14 -20 -5 -8 6 -12 15 -9 19 3 5 -4 6 -15 3 -15 -4 -19 -2 -14 10
4 12 11 13 35 5 16 -5 29 -11 29 -13z m-2890 5 c38 -20 31 -106 -9 -117 -12
-3 -18 -13 -17 -28 0 -13 3 -22 6 -20 3 2 15 -14 27 -36 19 -36 20 -39 4 -39
-20 0 -68 91 -57 108 4 6 -9 9 -34 8 -22 -1 -40 1 -40 6 0 4 17 8 38 8 21 0
48 8 61 17 15 10 21 11 16 3 -5 -8 -4 -11 3 -7 13 9 4 46 -16 70 -16 18 -4 24
16 7 9 -7 9 -7 2 2 -5 6 -37 11 -72 12 l-63 1 3 -47 c3 -33 0 -48 -8 -48 -8 0
-10 9 -6 23 3 13 1 38 -4 55 l-9 32 70 0 c39 0 79 -4 89 -10z m860 2 c0 -12
-40 -47 -40 -36 0 5 -7 0 -15 -10 -8 -11 -15 -16 -15 -11 0 11 51 65 62 65 4
0 8 -4 8 -8z m1074 -5 c37 -27 20 -104 -26 -119 -11 -4 7 -49 35 -90 18 -27
18 -28 -1 -28 -21 0 -46 45 -36 62 4 6 3 8 -3 5 -6 -4 -15 5 -21 18 -9 20 -19
25 -48 25 l-36 0 4 -55 c3 -47 0 -55 -14 -55 -10 0 -18 5 -18 11 0 5 5 7 11 3
8 -4 10 9 8 44 -5 59 6 72 61 72 38 0 80 25 80 49 0 26 -38 49 -85 53 l-50 5
3 -49 c2 -27 0 -48 -6 -48 -14 0 -22 26 -22 71 l0 39 73 0 c45 0 80 -5 91 -13z
m347 1 c1 -7 3 -23 4 -35 1 -14 -3 -23 -11 -23 -9 0 -14 12 -14 35 0 32 18 51
21 23z m130 -6 c20 -17 23 -29 24 -98 1 -69 -1 -81 -21 -101 -13 -13 -31 -23
-41 -23 -15 1 -15 3 6 20 12 11 28 17 34 13 6 -4 8 0 4 10 -3 10 -3 17 1 17
12 0 -2 116 -16 132 -6 8 -10 17 -8 19 2 2 -17 5 -42 7 -67 4 -79 22 -15 22
34 0 58 -6 74 -18z m-1601 -92 c0 -20 -5 -30 -15 -30 -8 0 -15 9 -15 20 0 11
5 20 11 20 5 0 7 5 4 10 -3 6 -1 10 4 10 6 0 11 -13 11 -30z m1471 18 c2 -22
-2 -43 -12 -52 -5 -6 -9 4 -9 27 0 33 18 55 21 25z m-2411 -99 c3 -32 2 -59
-2 -59 -9 0 -9 3 -13 78 -4 71 8 57 15 -19z m935 21 c-3 -5 -1 -10 4 -10 6 0
10 -3 10 -7 -4 -23 3 -34 18 -31 10 2 19 -5 21 -15 3 -16 1 -17 -17 -8 -11 7
-28 25 -36 41 -18 34 -18 40 -4 40 5 0 7 -4 4 -10z m972 -37 c-3 -10 -5 -2 -5
17 0 19 2 27 5 18 2 -10 2 -26 0 -35z m507 32 c-4 -8 -10 -15 -15 -15 -5 0 -9
7 -9 15 0 8 7 15 15 15 9 0 12 -6 9 -15z m-1310 -24 c9 -14 -27 -40 -65 -47
-38 -8 -37 -5 11 30 39 27 47 30 54 17z m1306 -10 c0 -6 -4 -13 -10 -16 -5 -3
-10 1 -10 9 0 9 5 16 10 16 6 0 10 -4 10 -9z m-1783 -24 c0 -10 -23 -14 -91
-15 -62 -1 -83 2 -64 8 15 4 52 8 84 9 31 0 59 3 62 6 8 7 9 7 9 -8z m1848 -7
c7 -12 -2 -12 -30 0 -19 8 -19 9 2 9 12 1 25 -3 28 -9z"/>
<path d="M7410 2840 c0 -5 5 -10 10 -10 6 0 10 5 10 10 0 6 -4 10 -10 10 -5 0
-10 -4 -10 -10z"/>
<path d="M7455 2830 c3 -5 8 -10 11 -10 2 0 4 5 4 10 0 6 -5 10 -11 10 -5 0
-7 -4 -4 -10z"/>
<path d="M7350 2820 c0 -5 5 -10 10 -10 6 0 10 5 10 10 0 6 -4 10 -10 10 -5 0
-10 -4 -10 -10z"/>
<path d="M7357 2784 c-64 -64 -57 -225 12 -271 43 -29 60 -29 104 1 19 13 37
23 39 21 2 -2 5 4 6 13 1 9 4 43 8 74 9 77 -1 121 -35 157 -39 41 -96 43 -134
5z"/>
<path d="M7305 2780 c-3 -6 1 -7 9 -4 18 7 21 14 7 14 -6 0 -13 -4 -16 -10z"/>
<path d="M7538 2710 c2 -17 10 -30 18 -30 17 0 17 2 2 35 -15 34 -26 32 -20
-5z"/>
<path d="M7280 2700 c0 -5 5 -10 11 -10 5 0 7 5 4 10 -3 6 -8 10 -11 10 -2 0
-4 -4 -4 -10z"/>
<path d="M7285 2651 c-3 -5 -1 -12 5 -16 5 -3 10 1 10 9 0 18 -6 21 -15 7z"/>
<path d="M7540 2600 c0 -5 5 -10 11 -10 5 0 7 5 4 10 -3 6 -8 10 -11 10 -2 0
-4 -4 -4 -10z"/>
<path d="M7530 2550 c0 -5 5 -10 10 -10 6 0 10 5 10 10 0 6 -4 10 -10 10 -5 0
-10 -4 -10 -10z"/>
<path d="M7375 2480 c3 -5 10 -10 16 -10 5 0 9 5 9 10 0 6 -7 10 -16 10 -8 0
-12 -4 -9 -10z"/>
<path d="M7450 2480 c0 -5 5 -10 10 -10 6 0 10 5 10 10 0 6 -4 10 -10 10 -5 0
-10 -4 -10 -10z"/>
<path d="M7978 2833 c7 -3 16 -2 19 1 4 3 -2 6 -13 5 -11 0 -14 -3 -6 -6z"/>
<path d="M7915 2810 c-3 -5 -2 -10 4 -10 5 0 13 5 16 10 3 6 2 10 -4 10 -5 0
-13 -4 -16 -10z"/>
<path d="M8085 2810 c-3 -5 1 -10 9 -10 9 0 16 5 16 10 0 6 -4 10 -9 10 -6 0
-13 -4 -16 -10z"/>
<path d="M7946 2779 c-33 -39 -39 -64 -34 -149 3 -60 7 -73 33 -100 33 -34 85
-41 122 -15 36 25 57 96 49 168 -4 34 -8 70 -9 79 -1 9 -3 15 -5 13 -3 -2 -16
5 -30 15 -39 32 -95 27 -126 -11z"/>
<path d="M8130 2670 c0 -5 5 -10 11 -10 5 0 7 5 4 10 -3 6 -8 10 -11 10 -2 0
-4 -4 -4 -10z"/>
<path d="M7870 2650 c0 -11 4 -20 9 -20 5 0 7 9 4 20 -3 11 -7 20 -9 20 -2 0
-4 -9 -4 -20z"/>
<path d="M7870 2600 c0 -5 7 -10 15 -10 8 0 15 5 15 10 0 6 -7 10 -15 10 -8 0
-15 -4 -15 -10z"/>
<path d="M8130 2590 c0 -5 5 -10 11 -10 5 0 7 5 4 10 -3 6 -8 10 -11 10 -2 0
-4 -4 -4 -10z"/>
<path d="M8092 2527 c-8 -10 -6 -13 9 -14 19 -2 26 11 10 21 -5 3 -14 0 -19
-7z"/>
<path d="M8000 2480 c0 -5 5 -10 11 -10 5 0 7 5 4 10 -3 6 -8 10 -11 10 -2 0
-4 -4 -4 -10z"/>
<path d="M4000 2831 c0 -17 15 -19 28 -5 11 12 9 14 -8 14 -11 0 -20 -4 -20
-9z"/>
<path d="M4030 2655 l0 -155 45 0 c61 0 93 17 116 62 22 43 25 124 6 178 -15
43 -63 70 -124 70 l-43 0 0 -155z"/>
<path d="M3995 2739 c-4 -6 -5 -13 -2 -16 7 -7 27 6 27 18 0 12 -17 12 -25 -2z"/>
<path d="M3990 2600 c0 -5 6 -10 13 -10 8 0 7 -4 -3 -10 -13 -8 -12 -10 3 -10
10 0 17 8 17 20 0 11 -7 20 -15 20 -8 0 -15 -4 -15 -10z"/>
<path d="M4002 2548 c-14 -14 -16 -38 -3 -38 10 0 26 39 19 46 -2 2 -10 -2
-16 -8z"/>
<path d="M4135 2490 c-3 -5 -1 -10 4 -10 6 0 11 5 11 10 0 6 -2 10 -4 10 -3 0
-8 -4 -11 -10z"/>
<path d="M4060 2480 c0 -5 5 -10 10 -10 6 0 10 5 10 10 0 6 -4 10 -10 10 -5 0
-10 -4 -10 -10z"/>
<path d="M4707 2800 c9 -22 18 -39 19 -37 6 6 -19 77 -27 77 -4 0 0 -18 8 -40z"/>
<path d="M4661 2753 c-6 -21 -17 -60 -26 -88 -8 -27 -15 -53 -15 -57 0 -5 28
-8 61 -8 54 0 61 2 56 18 -30 107 -52 172 -59 172 -4 0 -12 -17 -17 -37z"/>
<path d="M4640 2775 c-1 -5 -3 -23 -6 -40 -3 -29 -3 -29 7 -6 5 14 8 32 6 40
-3 9 -6 12 -7 6z"/>
<path d="M4744 2670 c0 -13 4 -16 10 -10 7 7 7 13 0 20 -6 6 -10 3 -10 -10z"/>
<path d="M4757 2643 c-4 -3 -7 -11 -7 -17 0 -6 5 -5 12 2 6 6 9 14 7 17 -3 3
-9 2 -12 -2z"/>
<path d="M4580 2600 c0 -5 9 -14 20 -20 22 -12 27 -1 8 18 -14 14 -28 16 -28
2z"/>
<path d="M4753 2595 c-8 -9 -9 -16 -3 -20 6 -3 10 -1 10 4 0 6 7 11 16 11 8 0
12 5 9 10 -8 13 -18 12 -32 -5z"/>
<path d="M4662 2580 c10 -6 25 -7 40 -1 20 9 18 10 -17 10 -31 0 -36 -2 -23
-9z"/>
<path d="M4572 2547 c-17 -35 -24 -77 -12 -77 5 0 9 3 8 8 -1 4 4 25 10 46 13
46 10 57 -6 23z"/>
<path d="M4799 2525 c-9 -8 2 -55 12 -55 10 0 11 17 0 43 -3 10 -9 15 -12 12z"/>
<path d="M5355 2810 c-3 -5 -5 -10 -3 -11 29 -7 36 -5 31 7 -6 16 -19 18 -28
4z"/>
<path d="M5197 2803 c-4 -3 -7 -35 -7 -70 l0 -63 63 0 c81 0 107 17 107 70 0
52 -26 70 -101 70 -30 0 -59 -3 -62 -7z"/>
<path d="M5377 2764 c6 -15 23 -19 23 -5 0 5 -7 11 -14 14 -10 4 -13 1 -9 -9z"/>
<path d="M5217 2649 c8 -8 16 -8 30 0 16 9 14 10 -11 11 -22 0 -27 -3 -19 -11z"/>
<path d="M5285 2649 c-4 -5 0 -18 8 -27 7 -9 17 -25 20 -34 4 -10 11 -18 16
-18 10 0 5 25 -9 45 -4 6 -6 18 -5 28 3 18 -20 24 -30 6z"/>
<path d="M5162 2600 c0 -19 2 -27 5 -17 2 9 2 25 0 35 -3 9 -5 1 -5 -18z"/>
<path d="M5163 2521 c3 -15 1 -33 -6 -40 -8 -8 -7 -11 4 -11 11 0 16 12 17 40
2 25 -2 40 -9 40 -7 0 -9 -10 -6 -29z"/>
<path d="M5360 2485 c0 -8 7 -15 15 -15 9 0 12 6 9 15 -4 8 -10 15 -15 15 -5
0 -9 -7 -9 -15z"/>
<path d="M5746 2825 c4 -8 8 -15 10 -15 2 0 4 7 4 15 0 8 -4 15 -10 15 -5 0
-7 -7 -4 -15z"/>
<path d="M5900 2779 c-12 -16 -20 -32 -17 -35 2 -3 14 11 25 31 26 43 21 46
-8 4z"/>
<path d="M5740 2780 c0 -5 5 -10 11 -10 5 0 7 5 4 10 -3 6 -8 10 -11 10 -2 0
-4 -4 -4 -10z"/>
<path d="M5741 2724 c0 -11 3 -14 6 -6 3 7 2 16 -1 19 -3 4 -6 -2 -5 -13z"/>
<path d="M5839 2703 c-13 -16 -12 -17 4 -4 16 13 21 21 13 21 -2 0 -10 -8 -17
-17z"/>
<path d="M5740 2635 c0 -8 7 -15 15 -15 8 0 15 4 15 9 0 5 -7 11 -15 15 -9 3
-15 0 -15 -9z"/>
<path d="M5907 2607 c-3 -8 1 -14 8 -14 7 0 11 6 8 14 -3 7 -6 13 -8 13 -2 0
-5 -6 -8 -13z"/>
<path d="M5740 2510 c0 -11 5 -20 10 -20 6 0 10 9 10 20 0 11 -4 20 -10 20 -5
0 -10 -9 -10 -20z"/>
<path d="M5978 2473 c7 -3 16 -2 19 1 4 3 -2 6 -13 5 -11 0 -14 -3 -6 -6z"/>
<path d="M6788 2833 c7 -3 16 -2 19 1 4 3 -2 6 -13 5 -11 0 -14 -3 -6 -6z"/>
<path d="M6830 2829 c0 -5 5 -7 10 -4 6 3 10 8 10 11 0 2 -4 4 -10 4 -5 0 -10
-5 -10 -11z"/>
<path d="M6868 2833 c7 -3 16 -2 19 1 4 3 -2 6 -13 5 -11 0 -14 -3 -6 -6z"/>
<path d="M6927 2806 c-4 -10 -1 -13 8 -9 8 3 12 9 9 14 -7 12 -11 11 -17 -5z"/>
<path d="M6757 2748 c-6 -70 -4 -78 24 -78 11 0 17 -4 14 -10 -3 -5 1 -10 10
-10 9 0 13 5 10 10 -4 6 9 10 33 10 69 0 104 69 58 114 -21 22 -34 26 -84 26
l-59 0 -6 -62z"/>
<path d="M6720 2770 c0 -5 5 -10 10 -10 6 0 10 5 10 10 0 6 -4 10 -10 10 -5 0
-10 -4 -10 -10z"/>
<path d="M6726 2691 c-4 -7 -5 -15 -2 -18 9 -9 19 4 14 18 -4 11 -6 11 -12 0z"/>
<path d="M6860 2649 c0 -5 5 -7 10 -4 6 3 10 8 10 11 0 2 -4 4 -10 4 -5 0 -10
-5 -10 -11z"/>
<path d="M6720 2640 c0 -5 7 -10 15 -10 8 0 15 5 15 10 0 6 -7 10 -15 10 -8 0
-15 -4 -15 -10z"/>
<path d="M6890 2578 c0 -9 5 -20 10 -23 13 -8 13 5 0 25 -8 13 -10 13 -10 -2z"/>
<path d="M6720 2520 c0 -5 5 -10 10 -10 6 0 10 5 10 10 0 6 -4 10 -10 10 -5 0
-10 -4 -10 -10z"/>
<path d="M6910 2526 c0 -2 7 -9 15 -16 13 -11 14 -10 9 4 -5 14 -24 23 -24 12z"/>
<path d="M8493 2833 c9 -2 23 -2 30 0 6 3 -1 5 -18 5 -16 0 -22 -2 -12 -5z"/>
<path d="M8740 2825 c0 -8 5 -15 10 -15 6 0 10 7 10 15 0 8 -4 15 -10 15 -5 0
-10 -7 -10 -15z"/>
<path d="M8766 2781 c-4 -7 -5 -15 -2 -18 9 -9 19 4 14 18 -4 11 -6 11 -12 0z"/>
<path d="M8700 2761 c-12 -24 -13 -31 -1 -31 5 0 11 11 13 25 6 30 2 32 -12 6z"/>
<path d="M8487 2700 c-9 -21 -4 -71 6 -61 5 5 7 24 5 42 -3 22 -6 29 -11 19z"/>
<path d="M8760 2691 c0 -5 5 -13 10 -16 6 -3 10 -2 10 4 0 5 -4 13 -10 16 -5
3 -10 2 -10 -4z"/>
<path d="M8575 2660 c-3 -5 -1 -10 5 -10 6 0 8 -4 5 -10 -3 -5 -1 -10 4 -10
13 0 14 27 2 35 -5 3 -12 1 -16 -5z"/>
<path d="M8760 2610 c0 -5 5 -10 11 -10 5 0 7 5 4 10 -3 6 -8 10 -11 10 -2 0
-4 -4 -4 -10z"/>
<path d="M8595 2600 c-3 -5 1 -10 10 -10 9 0 13 5 10 10 -3 6 -8 10 -10 10 -2
0 -7 -4 -10 -10z"/>
<path d="M8760 2571 c0 -6 4 -13 10 -16 6 -3 7 1 4 9 -7 18 -14 21 -14 7z"/>
<path d="M8478 2510 c-2 -28 0 -40 9 -40 8 0 13 14 13 40 0 22 -4 40 -9 40 -5
0 -11 -18 -13 -40z"/>
<path d="M8766 2503 c-6 -14 -5 -15 5 -6 7 7 10 15 7 18 -3 3 -9 -2 -12 -12z"/>
<path d="M6365 2120 c10 -11 20 -20 23 -20 3 0 -3 9 -13 20 -10 11 -20 20 -23
20 -3 0 3 -9 13 -20z"/>
<path d="M6225 2089 c-4 -6 -5 -12 -2 -15 2 -3 7 2 10 11 7 17 1 20 -8 4z"/>
<path d="M7738 2033 c7 -3 16 -2 19 1 4 3 -2 6 -13 5 -11 0 -14 -3 -6 -6z"/>
<path d="M7780 2026 c0 -2 7 -7 16 -10 8 -3 12 -2 9 4 -6 10 -25 14 -25 6z"/>
<path d="M7680 1930 c8 -5 20 -10 25 -10 6 0 3 5 -5 10 -8 5 -19 10 -25 10 -5
0 -3 -5 5 -10z"/>
<path d="M5769 2123 c-13 -16 -12 -17 4 -4 9 7 17 15 17 17 0 8 -8 3 -21 -13z"/>
<path d="M6850 2136 c0 -2 8 -10 18 -17 15 -13 16 -12 3 4 -13 16 -21 21 -21
13z"/>
<path d="M6722 2095 c0 -16 2 -22 5 -12 2 9 2 23 0 30 -3 6 -5 -1 -5 -18z"/>
<path d="M6859 2043 c-13 -16 -12 -17 4 -4 16 13 21 21 13 21 -2 0 -10 -8 -17
-17z"/>
<path d="M5880 1935 c-7 -8 -8 -15 -2 -15 5 0 15 7 22 15 7 8 8 15 2 15 -5 0
-15 -7 -22 -15z"/>
</g>
</svg>
